STARTFONT 2.1
FONT fg-20
COMMENT
COMMENT GENERATED BY "../snftobdf 1.0"
COMMENT AUTHOR mleisher@nmsu.edu (Mark Leisher)
COMMENT DATE Wed Dec 19 17:00:08 1990
COMMENT
SIZE 12 75 75
FONTBOUNDINGBOX 12 20 0 -5
STARTPROPERTIES 10
COPYRIGHT "Public domain font.  Share and enjoy."
FAMILY_NAME "fg-20.bdf"
POINT_SIZE 190
WEIGHT 207
RESOLUTION 103
X_HEIGHT 15
QUAD_WIDTH 12
DEFAULT_CHAR 0
FONT_ASCENT 15
FONT_DESCENT 5
ENDPROPERTIES
CHARS 123
STARTCHAR C001
ENCODING 1
SWIDTH 963 0
DWIDTH 12 0
BBX 12 20 0 -5
BITMAP
0c00
0c00
0c00
0c00
0c00
0c00
0c00
0c00
0c00
8c40
ccc0
6d80
3f00
1e00
0c00
0000
0000
0000
0000
0000
ENDCHAR
STARTCHAR C002
ENCODING 2
SWIDTH 963 0
DWIDTH 12 0
BBX 12 20 0 -5
BITMAP
0000
0000
0000
0000
0000
1840
3cc0
6780
c300
c300
c300
c300
6780
3cc0
1840
0000
0000
0000
0000
0000
ENDCHAR
STARTCHAR C003
ENCODING 3
SWIDTH 963 0
DWIDTH 12 0
BBX 12 20 0 -5
BITMAP
0600
0f00
1980
18c0
30c0
3180
3f00
6380
60c0
60c0
60c0
e380
fe00
c000
c000
0000
0000
0000
0000
0000
ENDCHAR
STARTCHAR C004
ENCODING 4
SWIDTH 963 0
DWIDTH 12 0
BBX 12 20 0 -5
BITMAP
0000
0000
0000
0000
0000
0c00
0c00
1e00
1200
3300
2100
6180
4080
c0c0
8040
0000
0000
0000
0000
0000
ENDCHAR
STARTCHAR C005
ENCODING 5
SWIDTH 963 0
DWIDTH 12 0
BBX 12 20 0 -5
BITMAP
0000
0000
0000
0000
0000
0000
0000
0000
ffc0
ffc0
00c0
00c0
00c0
0000
0000
0000
0000
0000
0000
0000
ENDCHAR
STARTCHAR C006
ENCODING 6
SWIDTH 963 0
DWIDTH 12 0
BBX 12 20 0 -5
BITMAP
0000
0000
0000
0000
0000
1e00
3800
6000
c000
c000
fc00
c000
c000
6000
3800
1e00
0000
0000
0000
0000
ENDCHAR
STARTCHAR C007
ENCODING 7
SWIDTH 963 0
DWIDTH 12 0
BBX 12 20 0 -5
BITMAP
0000
0000
0000
0000
0000
fe00
ff80
63c0
6300
6300
6300
6300
6300
6300
e3c0
0000
0000
0000
0000
0000
ENDCHAR
STARTCHAR C010
ENCODING 8
SWIDTH 963 0
DWIDTH 12 0
BBX 12 20 0 -5
BITMAP
0000
0000
e000
3000
1800
0c00
0c00
0e00
0e00
1b00
3300
6180
c180
c0c0
80c0
0000
0000
0000
0000
0000
ENDCHAR
STARTCHAR C013
ENCODING 11
SWIDTH 963 0
DWIDTH 12 0
BBX 12 20 0 -5
BITMAP
0c00
1e00
3f00
6d80
ccc0
8c40
0c00
0c00
0c00
0c00
0c00
0c00
0c00
0c00
0c00
0000
0000
0000
0000
0000
ENDCHAR
STARTCHAR C015
ENCODING 13
SWIDTH 963 0
DWIDTH 12 0
BBX 12 20 0 -5
BITMAP
0000
0000
0000
0000
ff80
ffc0
01c0
0380
c700
ce00
dc00
f800
f000
fe00
fe00
0000
0000
0000
0000
0000
ENDCHAR
STARTCHAR C016
ENCODING 14
SWIDTH 963 0
DWIDTH 12 0
BBX 12 20 0 -5
BITMAP
0000
0000
0000
0000
0000
0000
0000
7380
f3c0
ccc0
ccc0
ccc0
f3c0
7380
0000
0000
0000
0000
0000
0000
ENDCHAR
STARTCHAR C017
ENCODING 15
SWIDTH 963 0
DWIDTH 12 0
BBX 12 20 0 -5
BITMAP
3000
1c00
0600
0300
0300
0180
0f80
3f80
7380
c180
c180
c380
c700
7e00
3800
0000
0000
0000
0000
0000
ENDCHAR
STARTCHAR C020
ENCODING 16
SWIDTH 963 0
DWIDTH 12 0
BBX 12 20 0 -5
BITMAP
0000
0000
0000
0000
0000
1fc0
3fc0
7000
e000
c000
c000
e000
7000
3fc0
1fc0
0000
0000
0000
0000
0000
ENDCHAR
STARTCHAR C021
ENCODING 17
SWIDTH 963 0
DWIDTH 12 0
BBX 12 20 0 -5
BITMAP
0000
0000
0000
0000
0000
fe00
ff00
0380
01c0
00c0
00c0
01c0
0380
ff00
fe00
0000
0000
0000
0000
0000
ENDCHAR
STARTCHAR C022
ENCODING 18
SWIDTH 963 0
DWIDTH 12 0
BBX 12 20 0 -5
BITMAP
3f00
7f80
e1c0
c0c0
c0c0
c0c0
c0c0
c0c0
c0c0
c0c0
c0c0
c0c0
c0c0
c0c0
c0c0
0000
0000
0000
0000
0000
ENDCHAR
STARTCHAR C023
ENCODING 19
SWIDTH 963 0
DWIDTH 12 0
BBX 12 20 0 -5
BITMAP
c0c0
c0c0
c0c0
c0c0
c0c0
c0c0
c0c0
c0c0
c0c0
c0c0
c0c0
c0c0
e1c0
7f80
3f00
0000
0000
0000
0000
0000
ENDCHAR
STARTCHAR C024
ENCODING 20
SWIDTH 963 0
DWIDTH 12 0
BBX 12 20 0 -5
BITMAP
c0c0
c0c0
c0c0
c0c0
7f80
7f80
6180
3300
3300
3300
1200
1e00
1e00
0c00
0c00
0000
0000
0000
0000
0000
ENDCHAR
STARTCHAR C025
ENCODING 21
SWIDTH 963 0
DWIDTH 12 0
BBX 12 20 0 -5
BITMAP
ffc0
ff80
0180
0180
0180
0180
1f80
1f80
0180
0180
0180
0180
0180
ff80
ffc0
0000
0000
0000
0000
0000
ENDCHAR
STARTCHAR C026
ENCODING 22
SWIDTH 963 0
DWIDTH 12 0
BBX 12 20 0 -5
BITMAP
0000
0000
0000
0000
0000
3f00
6180
e1c0
b340
9e40
8c40
9e40
f3c0
6180
3f00
0000
0000
0000
0000
0000
ENDCHAR
STARTCHAR C027
ENCODING 23
SWIDTH 963 0
DWIDTH 12 0
BBX 12 20 0 -5
BITMAP
0000
0000
0000
0000
0000
0000
1200
2100
6180
ffc0
ffc0
6180
2100
1200
0000
0000
0000
0000
0000
0000
ENDCHAR
STARTCHAR C030
ENCODING 24
SWIDTH 963 0
DWIDTH 12 0
BBX 12 20 0 -5
BITMAP
0000
0000
0000
0000
0000
0000
1000
3000
6000
ffc0
ffc0
6000
3000
1000
0000
0000
0000
0000
0000
0000
ENDCHAR
STARTCHAR C031
ENCODING 25
SWIDTH 963 0
DWIDTH 12 0
BBX 12 20 0 -5
BITMAP
0000
0000
0000
0000
0000
0000
0600
0300
0180
ffc0
ffc0
0180
0300
0600
0000
0000
0000
0000
0000
0000
ENDCHAR
STARTCHAR C032
ENCODING 26
SWIDTH 963 0
DWIDTH 12 0
BBX 12 20 0 -5
BITMAP
0000
0000
0000
0000
0000
00c0
0180
ffc0
ffc0
0e00
1c00
ffc0
ffc0
6000
c000
0000
0000
0000
0000
0000
ENDCHAR
STARTCHAR C033
ENCODING 27
SWIDTH 963 0
DWIDTH 12 0
BBX 12 20 0 -5
BITMAP
0000
0c00
0c00
1e00
1e00
3300
6180
e1c0
6180
3300
1e00
1e00
0c00
0c00
0000
0000
0000
0000
0000
0000
ENDCHAR
STARTCHAR C034
ENCODING 28
SWIDTH 963 0
DWIDTH 12 0
BBX 12 20 0 -5
BITMAP
0000
00c0
0380
0f00
3c00
f000
f000
3c00
0f00
0380
00c0
0000
0000
ffc0
ffc0
0000
0000
0000
0000
0000
ENDCHAR
STARTCHAR C035
ENCODING 29
SWIDTH 963 0
DWIDTH 12 0
BBX 12 20 0 -5
BITMAP
0000
c000
7000
3c00
0f00
03c0
03c0
0f00
3c00
7000
c000
0000
0000
ffc0
ffc0
0000
0000
0000
0000
0000
ENDCHAR
STARTCHAR C036
ENCODING 30
SWIDTH 963 0
DWIDTH 12 0
BBX 12 20 0 -5
BITMAP
0000
0000
0000
0000
0000
ff80
ff80
0000
0000
ff80
ff80
0000
0000
ff80
ff80
0000
0000
0000
0000
0000
ENDCHAR
STARTCHAR C037
ENCODING 31
SWIDTH 963 0
DWIDTH 12 0
BBX 12 20 0 -5
BITMAP
0000
0000
0000
0000
0000
8040
c0c0
4080
6180
2100
3300
1200
1e00
0c00
0c00
0000
0000
0000
0000
0000
ENDCHAR
STARTCHAR C040
ENCODING 32
SWIDTH 963 0
DWIDTH 12 0
BBX 12 20 0 -5
BITMAP
0000
0000
0000
0000
0000
0000
0000
0000
0000
0000
0000
0000
0000
0000
0000
0000
0000
0000
0000
0000
ENDCHAR
STARTCHAR C041
ENCODING 33
SWIDTH 963 0
DWIDTH 12 0
BBX 12 20 0 -5
BITMAP
c000
c000
c000
c000
c000
c000
c000
c000
c000
c000
c000
0000
0000
c000
c000
0000
0000
0000
0000
0000
ENDCHAR
STARTCHAR C042
ENCODING 34
SWIDTH 963 0
DWIDTH 12 0
BBX 12 20 0 -5
BITMAP
cc00
cc00
cc00
cc00
cc00
cc00
0000
0000
0000
0000
0000
0000
0000
0000
0000
0000
0000
0000
0000
0000
ENDCHAR
STARTCHAR C043
ENCODING 35
SWIDTH 963 0
DWIDTH 12 0
BBX 12 20 0 -5
BITMAP
0660
0660
0660
0cc0
3fe0
3fe0
1980
1980
3300
3300
ff80
ff80
6600
cc00
cc00
0000
0000
0000
0000
0000
ENDCHAR
STARTCHAR C044
ENCODING 36
SWIDTH 963 0
DWIDTH 12 0
BBX 12 20 0 -5
BITMAP
0c00
3f00
7f80
cdc0
ccc0
cc00
7c00
3f00
0f80
0cc0
0cc0
ccc0
ff80
7f00
0c00
0000
0000
0000
0000
0000
ENDCHAR
STARTCHAR C045
ENCODING 37
SWIDTH 963 0
DWIDTH 12 0
BBX 12 20 0 -5
BITMAP
70c0
8980
8980
8b00
7300
0600
0600
0c00
1800
1800
3380
3440
6440
6440
c380
0000
0000
0000
0000
0000
ENDCHAR
STARTCHAR C046
ENCODING 38
SWIDTH 963 0
DWIDTH 12 0
BBX 12 20 0 -5
BITMAP
0e00
1f00
3180
3180
3180
1f00
3c00
7c00
ee00
c6c0
c3c0
c380
c300
7fc0
3cc0
0000
0000
0000
0000
0000
ENDCHAR
STARTCHAR C047
ENCODING 39
SWIDTH 963 0
DWIDTH 12 0
BBX 12 20 0 -5
BITMAP
6000
f000
f000
3000
3000
6000
c000
8000
0000
0000
0000
0000
0000
0000
0000
0000
0000
0000
0000
0000
ENDCHAR
STARTCHAR C050
ENCODING 40
SWIDTH 963 0
DWIDTH 12 0
BBX 12 20 0 -5
BITMAP
1800
3000
7000
6000
e000
c000
c000
c000
c000
c000
e000
6000
7000
3000
1800
0000
0000
0000
0000
0000
ENDCHAR
STARTCHAR C051
ENCODING 41
SWIDTH 963 0
DWIDTH 12 0
BBX 12 20 0 -5
BITMAP
c000
6000
7000
3000
3800
1800
1800
1800
1800
1800
3800
3000
7000
6000
c000
0000
0000
0000
0000
0000
ENDCHAR
STARTCHAR C052
ENCODING 42
SWIDTH 963 0
DWIDTH 12 0
BBX 12 20 0 -5
BITMAP
0000
0000
0000
0000
1e00
0c00
ccc0
edc0
3300
0000
3300
edc0
ccc0
0c00
1e00
0000
0000
0000
0000
0000
ENDCHAR
STARTCHAR C053
ENCODING 43
SWIDTH 963 0
DWIDTH 12 0
BBX 12 20 0 -5
BITMAP
0000
0000
0000
0000
0000
0c00
0c00
0c00
0c00
ffc0
ffc0
0c00
0c00
0c00
0c00
0000
0000
0000
0000
0000
ENDCHAR
STARTCHAR C054
ENCODING 44
SWIDTH 963 0
DWIDTH 12 0
BBX 12 20 0 -5
BITMAP
0000
0000
0000
0000
0000
0000
0000
0000
0000
0000
0000
0000
6000
f000
f000
3000
3000
6000
c000
8000
ENDCHAR
STARTCHAR C055
ENCODING 45
SWIDTH 963 0
DWIDTH 12 0
BBX 12 20 0 -5
BITMAP
0000
0000
0000
0000
0000
0000
0000
0000
0000
ffc0
ffc0
0000
0000
0000
0000
0000
0000
0000
0000
0000
ENDCHAR
STARTCHAR C056
ENCODING 46
SWIDTH 963 0
DWIDTH 12 0
BBX 12 20 0 -5
BITMAP
0000
0000
0000
0000
0000
0000
0000
0000
0000
0000
0000
6000
f000
f000
6000
0000
0000
0000
0000
0000
ENDCHAR
STARTCHAR C057
ENCODING 47
SWIDTH 963 0
DWIDTH 12 0
BBX 12 20 0 -5
BITMAP
00c0
0180
0180
0300
0300
0600
0600
0c00
1800
1800
3000
3000
6000
6000
c000
0000
0000
0000
0000
0000
ENDCHAR
STARTCHAR C060
ENCODING 48
SWIDTH 963 0
DWIDTH 12 0
BBX 12 20 0 -5
BITMAP
1e00
3f00
7380
61c0
61c0
6380
6780
6d80
7980
7180
e180
e180
7380
3f00
1e00
0000
0000
0000
0000
0000
ENDCHAR
STARTCHAR C061
ENCODING 49
SWIDTH 963 0
DWIDTH 12 0
BBX 12 20 0 -5
BITMAP
1800
3800
7800
1800
1800
1800
1800
1800
1800
1800
1800
1800
1800
ff00
ff00
0000
0000
0000
0000
0000
ENDCHAR
STARTCHAR C062
ENCODING 50
SWIDTH 963 0
DWIDTH 12 0
BBX 12 20 0 -5
BITMAP
3e00
7f00
c180
c180
0180
0180
0300
0600
0c00
1800
3000
6000
c000
ff80
ff80
0000
0000
0000
0000
0000
ENDCHAR
STARTCHAR C063
ENCODING 51
SWIDTH 963 0
DWIDTH 12 0
BBX 12 20 0 -5
BITMAP
3e00
7f00
c380
c180
0180
0300
1e00
1f00
0180
0180
0180
c180
c380
7f00
3e00
0000
0000
0000
0000
0000
ENDCHAR
STARTCHAR C064
ENCODING 52
SWIDTH 963 0
DWIDTH 12 0
BBX 12 20 0 -5
BITMAP
0c00
0c00
1800
1800
3000
3600
6600
6600
c600
c600
ff80
ff80
0600
0600
0600
0000
0000
0000
0000
0000
ENDCHAR
STARTCHAR C065
ENCODING 53
SWIDTH 963 0
DWIDTH 12 0
BBX 12 20 0 -5
BITMAP
ff00
ff00
c000
c000
c000
c000
fe00
ff00
0380
0180
0180
c180
c380
7f00
3e00
0000
0000
0000
0000
0000
ENDCHAR
STARTCHAR C066
ENCODING 54
SWIDTH 963 0
DWIDTH 12 0
BBX 12 20 0 -5
BITMAP
3e00
7f00
c180
c180
c000
c000
de00
ff00
e380
c180
c180
c180
e380
7f00
3e00
0000
0000
0000
0000
0000
ENDCHAR
STARTCHAR C067
ENCODING 55
SWIDTH 963 0
DWIDTH 12 0
BBX 12 20 0 -5
BITMAP
ff80
ff80
0180
0300
0300
0600
0600
0c00
0c00
1800
1800
3000
3000
6000
6000
0000
0000
0000
0000
0000
ENDCHAR
STARTCHAR C070
ENCODING 56
SWIDTH 963 0
DWIDTH 12 0
BBX 12 20 0 -5
BITMAP
1e00
3f00
6180
6180
6180
3300
1e00
3f00
7380
e1c0
c0c0
c0c0
e1c0
7f80
3f00
0000
0000
0000
0000
0000
ENDCHAR
STARTCHAR C071
ENCODING 57
SWIDTH 963 0
DWIDTH 12 0
BBX 12 20 0 -5
BITMAP
3e00
7f00
e380
c180
c180
c180
e380
7f80
3d80
0180
0180
c180
c380
7f00
3e00
0000
0000
0000
0000
0000
ENDCHAR
STARTCHAR C072
ENCODING 58
SWIDTH 963 0
DWIDTH 12 0
BBX 12 20 0 -5
BITMAP
0000
0000
0000
0000
0000
6000
f000
f000
6000
0000
0000
6000
f000
f000
6000
0000
0000
0000
0000
0000
ENDCHAR
STARTCHAR C073
ENCODING 59
SWIDTH 963 0
DWIDTH 12 0
BBX 12 20 0 -5
BITMAP
0000
0000
0000
0000
0000
0000
6000
f000
f000
6000
0000
0000
6000
f000
f000
3000
3000
6000
c000
8000
ENDCHAR
STARTCHAR C074
ENCODING 60
SWIDTH 963 0
DWIDTH 12 0
BBX 12 20 0 -5
BITMAP
0000
0000
0000
0000
0000
00c0
0380
0e00
3c00
f000
f000
3c00
0e00
0380
00c0
0000
0000
0000
0000
0000
ENDCHAR
STARTCHAR C075
ENCODING 61
SWIDTH 963 0
DWIDTH 12 0
BBX 12 20 0 -5
BITMAP
0000
0000
0000
0000
0000
0000
0000
ff80
ff80
0000
0000
ff80
ff80
0000
0000
0000
0000
0000
0000
0000
ENDCHAR
STARTCHAR C076
ENCODING 62
SWIDTH 963 0
DWIDTH 12 0
BBX 12 20 0 -5
BITMAP
0000
0000
0000
0000
0000
c000
7000
3c00
0f00
03c0
03c0
0f00
3c00
7000
c000
0000
0000
0000
0000
0000
ENDCHAR
STARTCHAR C077
ENCODING 63
SWIDTH 963 0
DWIDTH 12 0
BBX 12 20 0 -5
BITMAP
3c00
7e00
e700
8300
0300
0300
0600
0c00
1800
3000
3000
0000
0000
3000
3000
0000
0000
0000
0000
0000
ENDCHAR
STARTCHAR C100
ENCODING 64
SWIDTH 963 0
DWIDTH 12 0
BBX 12 20 0 -5
BITMAP
0000
0000
0000
1f00
7f80
60c0
c0c0
ce40
df40
d940
d940
cfc0
c000
6000
7fc0
1fc0
0000
0000
0000
0000
ENDCHAR
STARTCHAR C101
ENCODING 65
SWIDTH 963 0
DWIDTH 12 0
BBX 12 20 0 -5
BITMAP
3e00
7f00
e380
c180
c180
c180
c180
ff80
ff80
c180
c180
c180
c180
c180
c180
0000
0000
0000
0000
0000
ENDCHAR
STARTCHAR C102
ENCODING 66
SWIDTH 963 0
DWIDTH 12 0
BBX 12 20 0 -5
BITMAP
fc00
fe00
c700
c300
c300
c600
fe00
ff00
c300
c180
c180
c180
c380
ff00
fc00
0000
0000
0000
0000
0000
ENDCHAR
STARTCHAR C103
ENCODING 67
SWIDTH 963 0
DWIDTH 12 0
BBX 12 20 0 -5
BITMAP
3e00
7f00
e380
c180
c000
c000
c000
c000
c000
c000
c000
c180
e380
7f00
3e00
0000
0000
0000
0000
0000
ENDCHAR
STARTCHAR C104
ENCODING 68
SWIDTH 963 0
DWIDTH 12 0
BBX 12 20 0 -5
BITMAP
fe00
ff00
c380
c180
c180
c180
c180
c180
c180
c180
c180
c180
c380
ff00
fe00
0000
0000
0000
0000
0000
ENDCHAR
STARTCHAR C105
ENCODING 69
SWIDTH 963 0
DWIDTH 12 0
BBX 12 20 0 -5
BITMAP
ff80
ff80
c000
c000
c000
c000
fe00
fe00
c000
c000
c000
c000
c000
ff80
ff80
0000
0000
0000
0000
0000
ENDCHAR
STARTCHAR C106
ENCODING 70
SWIDTH 963 0
DWIDTH 12 0
BBX 12 20 0 -5
BITMAP
ff80
ff80
c000
c000
c000
c000
c000
fe00
fe00
c000
c000
c000
c000
c000
c000
0000
0000
0000
0000
0000
ENDCHAR
STARTCHAR C107
ENCODING 71
SWIDTH 963 0
DWIDTH 12 0
BBX 12 20 0 -5
BITMAP
3e00
7f00
e380
c180
c000
c000
c000
c000
c780
c780
c180
c180
e380
7f00
3e00
0000
0000
0000
0000
0000
ENDCHAR
STARTCHAR C110
ENCODING 72
SWIDTH 963 0
DWIDTH 12 0
BBX 12 20 0 -5
BITMAP
c180
c180
c180
c180
c180
c180
ff80
ff80
c180
c180
c180
c180
c180
c180
c180
0000
0000
0000
0000
0000
ENDCHAR
STARTCHAR C111
ENCODING 73
SWIDTH 963 0
DWIDTH 12 0
BBX 12 20 0 -5
BITMAP
fc00
fc00
3000
3000
3000
3000
3000
3000
3000
3000
3000
3000
3000
fc00
fc00
0000
0000
0000
0000
0000
ENDCHAR
STARTCHAR C112
ENCODING 74
SWIDTH 963 0
DWIDTH 12 0
BBX 12 20 0 -5
BITMAP
0180
0180
0180
0180
0180
0180
0180
0180
0180
0180
0180
c180
c380
7f00
3e00
0000
0000
0000
0000
0000
ENDCHAR
STARTCHAR C113
ENCODING 75
SWIDTH 963 0
DWIDTH 12 0
BBX 12 20 0 -5
BITMAP
c180
c300
c600
cc00
d800
f000
e000
e000
f000
d800
cc00
c600
c300
c180
c080
0000
0000
0000
0000
0000
ENDCHAR
STARTCHAR C114
ENCODING 76
SWIDTH 963 0
DWIDTH 12 0
BBX 12 20 0 -5
BITMAP
c000
c000
c000
c000
c000
c000
c000
c000
c000
c000
c000
c000
c000
ff80
ff80
0000
0000
0000
0000
0000
ENDCHAR
STARTCHAR C115
ENCODING 77
SWIDTH 963 0
DWIDTH 12 0
BBX 12 20 0 -5
BITMAP
c180
e380
f780
d580
dd80
dd80
c980
c180
c180
c180
c180
c180
c180
c180
c180
0000
0000
0000
0000
0000
ENDCHAR
STARTCHAR C116
ENCODING 78
SWIDTH 963 0
DWIDTH 12 0
BBX 12 20 0 -5
BITMAP
c180
e180
e180
f180
f180
d980
d980
dd80
cd80
cd80
c780
c780
c380
c380
c180
0000
0000
0000
0000
0000
ENDCHAR
STARTCHAR C117
ENCODING 79
SWIDTH 963 0
DWIDTH 12 0
BBX 12 20 0 -5
BITMAP
3e00
7f00
e380
c180
c180
c180
c180
c180
c180
c180
c180
c180
e380
7f00
3e00
0000
0000
0000
0000
0000
ENDCHAR
STARTCHAR C120
ENCODING 80
SWIDTH 963 0
DWIDTH 12 0
BBX 12 20 0 -5
BITMAP
fe00
ff00
c380
c180
c180
c180
c380
ff00
fe00
c000
c000
c000
c000
c000
c000
0000
0000
0000
0000
0000
ENDCHAR
STARTCHAR C121
ENCODING 81
SWIDTH 963 0
DWIDTH 12 0
BBX 12 20 0 -5
BITMAP
3e00
7f00
e380
c180
c180
c180
c180
c180
c180
c180
c180
c780
e780
7f00
3fc0
00c0
0000
0000
0000
0000
ENDCHAR
STARTCHAR C122
ENCODING 82
SWIDTH 963 0
DWIDTH 12 0
BBX 12 20 0 -5
BITMAP
fe00
ff00
c380
c180
c180
c380
ff00
fe00
cc00
c600
c600
c300
c300
c180
c180
0000
0000
0000
0000
0000
ENDCHAR
STARTCHAR C123
ENCODING 83
SWIDTH 963 0
DWIDTH 12 0
BBX 12 20 0 -5
BITMAP
3e00
7f00
c380
c180
c000
c000
7e00
3f00
0380
0180
0180
c180
c380
ff00
7e00
0000
0000
0000
0000
0000
ENDCHAR
STARTCHAR C124
ENCODING 84
SWIDTH 963 0
DWIDTH 12 0
BBX 12 20 0 -5
BITMAP
ffc0
ffc0
0c00
0c00
0c00
0c00
0c00
0c00
0c00
0c00
0c00
0c00
0c00
0c00
0c00
0000
0000
0000
0000
0000
ENDCHAR
STARTCHAR C125
ENCODING 85
SWIDTH 963 0
DWIDTH 12 0
BBX 12 20 0 -5
BITMAP
c180
c180
c180
c180
c180
c180
c180
c180
c180
c180
c180
c180
e380
7f00
3e00
0000
0000
0000
0000
0000
ENDCHAR
STARTCHAR C126
ENCODING 86
SWIDTH 963 0
DWIDTH 12 0
BBX 12 20 0 -5
BITMAP
c0c0
c0c0
c0c0
c0c0
6180
6180
6180
3300
3300
3300
1200
1e00
1e00
0c00
0c00
0000
0000
0000
0000
0000
ENDCHAR
STARTCHAR C127
ENCODING 87
SWIDTH 963 0
DWIDTH 12 0
BBX 12 20 0 -5
BITMAP
c180
c180
c180
c180
c180
c180
c180
c180
c980
dd80
d580
d580
f780
e380
c180
0000
0000
0000
0000
0000
ENDCHAR
STARTCHAR C130
ENCODING 88
SWIDTH 963 0
DWIDTH 12 0
BBX 12 20 0 -5
BITMAP
c180
c180
6300
6300
3600
3600
1c00
1c00
1c00
3600
3600
6300
6300
c180
c180
0000
0000
0000
0000
0000
ENDCHAR
STARTCHAR C131
ENCODING 89
SWIDTH 963 0
DWIDTH 12 0
BBX 12 20 0 -5
BITMAP
c0c0
c0c0
6180
6180
3300
3300
1e00
1e00
0c00
0c00
0c00
0c00
0c00
0c00
0c00
0000
0000
0000
0000
0000
ENDCHAR
STARTCHAR C132
ENCODING 90
SWIDTH 963 0
DWIDTH 12 0
BBX 12 20 0 -5
BITMAP
ffc0
ffc0
00c0
01c0
0380
0700
0e00
1c00
3800
7000
e000
c000
c000
ffc0
ffc0
0000
0000
0000
0000
0000
ENDCHAR
STARTCHAR C133
ENCODING 91
SWIDTH 963 0
DWIDTH 12 0
BBX 12 20 0 -5
BITMAP
f800
f800
c000
c000
c000
c000
c000
c000
c000
c000
c000
c000
c000
f800
f800
0000
0000
0000
0000
0000
ENDCHAR
STARTCHAR C134
ENCODING 92
SWIDTH 963 0
DWIDTH 12 0
BBX 12 20 0 -5
BITMAP
c000
c000
6000
6000
3000
3000
1800
1800
0c00
0600
0600
0300
0300
0180
0180
0000
0000
0000
0000
0000
ENDCHAR
STARTCHAR C135
ENCODING 93
SWIDTH 963 0
DWIDTH 12 0
BBX 12 20 0 -5
BITMAP
f800
f800
1800
1800
1800
1800
1800
1800
1800
1800
1800
1800
1800
f800
f800
0000
0000
0000
0000
0000
ENDCHAR
STARTCHAR C136
ENCODING 94
SWIDTH 963 0
DWIDTH 12 0
BBX 12 20 0 -5
BITMAP
0800
1c00
3600
6300
c180
0000
0000
0000
0000
0000
0000
0000
0000
0000
0000
0000
0000
0000
0000
0000
ENDCHAR
STARTCHAR C137
ENCODING 95
SWIDTH 963 0
DWIDTH 12 0
BBX 12 20 0 -5
BITMAP
0000
0000
0000
0000
0000
0000
0000
0000
0000
0000
0000
0000
0000
0000
0000
0000
fff0
fff0
0000
0000
ENDCHAR
STARTCHAR C140
ENCODING 96
SWIDTH 963 0
DWIDTH 12 0
BBX 12 20 0 -5
BITMAP
2000
6000
c000
c000
f000
f000
6000
0000
0000
0000
0000
0000
0000
0000
0000
0000
0000
0000
0000
0000
ENDCHAR
STARTCHAR C141
ENCODING 97
SWIDTH 963 0
DWIDTH 12 0
BBX 12 20 0 -5
BITMAP
0000
0000
0000
0000
1e00
3f00
6180
0180
1f80
7f80
c180
c380
c780
fd80
7980
0000
0000
0000
0000
0000
ENDCHAR
STARTCHAR C142
ENCODING 98
SWIDTH 963 0
DWIDTH 12 0
BBX 12 20 0 -5
BITMAP
0000
c000
c000
c000
c000
ce00
df00
f380
e180
c180
c180
e180
f380
df00
ce00
0000
0000
0000
0000
0000
ENDCHAR
STARTCHAR C143
ENCODING 99
SWIDTH 963 0
DWIDTH 12 0
BBX 12 20 0 -5
BITMAP
0000
0000
0000
0000
0000
1f00
7f00
e180
c180
c000
c000
c000
e180
7f80
3f00
0000
0000
0000
0000
0000
ENDCHAR
STARTCHAR C144
ENCODING 100
SWIDTH 963 0
DWIDTH 12 0
BBX 12 20 0 -5
BITMAP
0000
0180
0180
0180
0180
3d80
7f80
e380
c180
c180
c180
c380
c780
7d80
3980
0000
0000
0000
0000
0000
ENDCHAR
STARTCHAR C145
ENCODING 101
SWIDTH 963 0
DWIDTH 12 0
BBX 12 20 0 -5
BITMAP
0000
0000
0000
0000
0000
3e00
7f00
e180
c180
ff80
ff80
c000
c180
7f80
3f00
0000
0000
0000
0000
0000
ENDCHAR
STARTCHAR C146
ENCODING 102
SWIDTH 963 0
DWIDTH 12 0
BBX 12 20 0 -5
BITMAP
0000
1c00
3c00
3000
3000
3000
fc00
fc00
3000
3000
3000
3000
3000
3000
3000
0000
0000
0000
0000
0000
ENDCHAR
STARTCHAR C147
ENCODING 103
SWIDTH 963 0
DWIDTH 12 0
BBX 12 20 0 -5
BITMAP
0000
0000
0000
0000
0000
3980
7d80
e780
c380
c180
c180
c180
e380
7f80
3f80
0180
0180
0180
3f00
1e00
ENDCHAR
STARTCHAR C150
ENCODING 104
SWIDTH 963 0
DWIDTH 12 0
BBX 12 20 0 -5
BITMAP
0000
c000
c000
c000
c000
ce00
df00
f380
e180
c180
c180
c180
c180
c180
c180
0000
0000
0000
0000
0000
ENDCHAR
STARTCHAR C151
ENCODING 105
SWIDTH 963 0
DWIDTH 12 0
BBX 12 20 0 -5
BITMAP
0000
c000
c000
0000
0000
c000
c000
c000
c000
c000
c000
c000
c000
c000
c000
0000
0000
0000
0000
0000
ENDCHAR
STARTCHAR C152
ENCODING 106
SWIDTH 963 0
DWIDTH 12 0
BBX 12 20 0 -5
BITMAP
0000
1800
1800
0000
0000
1800
1800
1800
1800
1800
1800
1800
1800
1800
1800
1800
1800
f800
f000
0000
ENDCHAR
STARTCHAR C153
ENCODING 107
SWIDTH 963 0
DWIDTH 12 0
BBX 12 20 0 -5
BITMAP
0000
0000
c000
c000
c300
c700
ce00
dc00
f800
f000
f800
dc00
ce00
c700
c300
0000
0000
0000
0000
0000
ENDCHAR
STARTCHAR C154
ENCODING 108
SWIDTH 963 0
DWIDTH 12 0
BBX 12 20 0 -5
BITMAP
0000
c000
c000
c000
c000
c000
c000
c000
c000
c000
c000
c000
c000
c000
c000
0000
0000
0000
0000
0000
ENDCHAR
STARTCHAR C155
ENCODING 109
SWIDTH 963 0
DWIDTH 12 0
BBX 12 20 0 -5
BITMAP
0000
0000
0000
0000
c000
db80
ffc0
ccc0
ccc0
ccc0
ccc0
ccc0
ccc0
ccc0
ccc0
0000
0000
0000
0000
0000
ENDCHAR
STARTCHAR C156
ENCODING 110
SWIDTH 963 0
DWIDTH 12 0
BBX 12 20 0 -5
BITMAP
0000
0000
0000
0000
0000
ce00
df00
f180
e180
c180
c180
c180
c180
c180
c180
0000
0000
0000
0000
0000
ENDCHAR
STARTCHAR C157
ENCODING 111
SWIDTH 963 0
DWIDTH 12 0
BBX 12 20 0 -5
BITMAP
0000
0000
0000
0000
0000
3e00
7f00
e380
c180
c180
c180
c180
e380
7f00
3e00
0000
0000
0000
0000
0000
ENDCHAR
STARTCHAR C160
ENCODING 112
SWIDTH 963 0
DWIDTH 12 0
BBX 12 20 0 -5
BITMAP
0000
0000
0000
0000
0000
ce00
df00
f380
e180
c180
c180
e180
f380
df00
ce00
c000
c000
c000
c000
0000
ENDCHAR
STARTCHAR C161
ENCODING 113
SWIDTH 963 0
DWIDTH 12 0
BBX 12 20 0 -5
BITMAP
0000
0000
0000
0000
0000
3980
7d80
e780
c380
c180
c180
c380
e780
7d80
3980
0180
0180
0180
0180
0000
ENDCHAR
STARTCHAR C162
ENCODING 114
SWIDTH 963 0
DWIDTH 12 0
BBX 12 20 0 -5
BITMAP
0000
0000
0000
0000
0000
ce00
df00
f180
e180
c000
c000
c000
c000
c000
c000
0000
0000
0000
0000
0000
ENDCHAR
STARTCHAR C163
ENCODING 115
SWIDTH 963 0
DWIDTH 12 0
BBX 12 20 0 -5
BITMAP
0000
0000
0000
0000
0000
7f00
ff80
c080
c000
7e00
3f00
0180
c180
ff80
7f00
0000
0000
0000
0000
0000
ENDCHAR
STARTCHAR C164
ENCODING 116
SWIDTH 963 0
DWIDTH 12 0
BBX 12 20 0 -5
BITMAP
0000
0000
3000
3000
3000
fc00
fc00
3000
3000
3000
3000
3000
3000
3c00
1c00
0000
0000
0000
0000
0000
ENDCHAR
STARTCHAR C165
ENCODING 117
SWIDTH 963 0
DWIDTH 12 0
BBX 12 20 0 -5
BITMAP
0000
0000
0000
0000
0000
c180
c180
c180
c180
c180
c180
c380
e780
7d80
3980
0000
0000
0000
0000
0000
ENDCHAR
STARTCHAR C166
ENCODING 118
SWIDTH 963 0
DWIDTH 12 0
BBX 12 20 0 -5
BITMAP
0000
0000
0000
0000
0000
c0c0
c0c0
6180
6180
3300
3300
1e00
1e00
0c00
0c00
0000
0000
0000
0000
0000
ENDCHAR
STARTCHAR C167
ENCODING 119
SWIDTH 963 0
DWIDTH 12 0
BBX 12 20 0 -5
BITMAP
0000
0000
0000
0000
0000
c180
c180
c180
c180
c980
dd80
dd80
f780
e380
c180
0000
0000
0000
0000
0000
ENDCHAR
STARTCHAR C170
ENCODING 120
SWIDTH 963 0
DWIDTH 12 0
BBX 12 20 0 -5
BITMAP
0000
0000
0000
0000
0000
c180
c180
6300
3600
1c00
1c00
3e00
6300
c180
c180
0000
0000
0000
0000
0000
ENDCHAR
STARTCHAR C171
ENCODING 121
SWIDTH 963 0
DWIDTH 12 0
BBX 12 20 0 -5
BITMAP
0000
0000
0000
0000
0000
c180
c180
c180
c180
c180
c180
c180
c180
7f80
3f80
0180
0180
0180
7f00
3e00
ENDCHAR
STARTCHAR C172
ENCODING 122
SWIDTH 963 0
DWIDTH 12 0
BBX 12 20 0 -5
BITMAP
0000
0000
0000
0000
0000
ff80
ff80
0300
0600
0c00
1800
3000
6000
ff80
ff80
0000
0000
0000
0000
0000
ENDCHAR
STARTCHAR C173
ENCODING 123
SWIDTH 963 0
DWIDTH 12 0
BBX 12 20 0 -5
BITMAP
3800
6000
6000
3000
3000
3000
6000
e000
6000
3000
3000
3000
6000
6000
3800
0000
0000
0000
0000
0000
ENDCHAR
STARTCHAR C174
ENCODING 124
SWIDTH 963 0
DWIDTH 12 0
BBX 12 20 0 -5
BITMAP
c000
c000
c000
c000
c000
c000
c000
c000
c000
c000
c000
c000
c000
c000
c000
c000
c000
c000
c000
c000
ENDCHAR
STARTCHAR C175
ENCODING 125
SWIDTH 963 0
DWIDTH 12 0
BBX 12 20 0 -5
BITMAP
e000
3000
3000
6000
6000
6000
3000
3800
3000
6000
6000
6000
3000
3000
e000
0000
0000
0000
0000
0000
ENDCHAR
STARTCHAR C176
ENCODING 126
SWIDTH 963 0
DWIDTH 12 0
BBX 12 20 0 -5
BITMAP
0000
0000
0000
0000
0000
0000
0000
0000
3840
7cc0
6d80
cf80
8700
0000
0000
0000
0000
0000
0000
0000
ENDCHAR
ENDFONT
